# Blender 4.3.2
# www.blender.org
mtllib rainbow_belt.mtl
o Spartarelec_Left.001
v 0.068181 0.994273 0.093292
v 0.125312 0.997275 0.074800
v 0.120696 0.994679 0.068625
v 0.070438 0.996041 0.100780
v 0.072067 1.007158 0.106354
v 0.000007 0.994216 0.103170
v 0.000189 1.012787 0.116260
v 0.000006 0.996007 0.111072
v -0.070325 0.996133 0.100876
v -0.067966 0.994273 0.093291
v -0.124881 0.996941 0.075074
v -0.119981 0.994679 0.068624
v -0.072002 1.019134 0.108543
v -0.122154 1.024936 0.070872
v -0.070031 1.033663 0.104848
v -0.069819 1.046928 0.105600
v 0.000020 1.063836 0.111370
v -0.000011 1.033952 0.105429
v -0.000011 1.033952 0.105429
v 0.067637 1.036423 0.094220
v 0.067637 1.036423 0.094220
v 0.072067 1.007158 0.106354
v 0.118081 1.046352 0.065131
v 0.125312 0.997275 0.074800
v 0.068890 1.073056 0.097161
v 0.118201 1.045877 0.065149
v 0.116594 1.071997 0.063711
v -0.122031 1.024997 0.070938
v -0.119962 1.052401 0.068513
v -0.066218 1.063876 0.093995
v -0.069819 1.046928 0.105600
v 0.000155 1.073561 0.101124
v 0.000020 1.063836 0.111370
v 0.065361 1.089038 0.087091
v 0.068890 1.073056 0.097161
v 0.115070 1.090376 0.062470
v 0.116594 1.071994 0.063711
v 0.110064 1.090638 0.055867
v 0.062839 1.090268 0.079206
v 0.000053 1.090343 0.098524
v 0.000062 1.090479 0.090811
v 0.000226 1.082619 0.105564
v -0.062550 1.090268 0.079210
v -0.068021 1.077642 0.096921
v -0.065029 1.090176 0.086679
v -0.108775 1.090638 0.056256
v -0.113811 1.090430 0.062737
v -0.120094 1.052435 0.068434
v -0.066218 1.063876 0.093995
v 0.000226 1.082619 0.105564
v 0.000155 1.073561 0.101124
v 0.065361 1.089038 0.087091
vn 0.1412 -0.9488 0.2824
vn 0.1766 -0.9187 0.3533
vn 0.0757 -0.9742 0.2126
vn 0.1909 -0.7543 0.6282
vn 0.2448 -0.4054 0.8807
vn -0.0005 -0.9743 0.2254
vn 0.0230 0.0308 0.9993
vn -0.0056 -0.7286 0.6849
vn -0.2533 -0.6650 0.7026
vn -0.0736 -0.9731 0.2185
vn -0.4103 -0.5904 0.6951
vn -0.1207 -0.9642 0.2362
vn -0.3324 0.0847 0.9393
vn -0.5306 -0.0090 0.8476
vn -0.2809 0.1006 0.9544
vn -0.2396 -0.1086 0.9648
vn 0.0970 -0.1431 0.9849
vn 0.0552 0.4050 0.9127
vn 0.0847 -0.1443 0.9859
vn 0.3253 0.3660 0.8719
vn 0.3600 -0.0812 0.9294
vn 0.3312 0.3616 0.8715
vn 0.4814 0.3007 0.8233
vn 0.4838 0.2982 0.8228
vn 0.3782 -0.0757 0.9226
vn 0.5376 -0.0173 0.8430
vn 0.5375 -0.0177 0.8431
vn -0.3620 0.5047 0.7837
vn -0.5411 0.3130 0.7805
vn -0.5409 0.3136 0.7805
vn -0.4051 0.4671 0.7860
vn -0.0616 0.6369 0.7685
vn -0.0893 0.6392 0.7638
vn 0.1888 0.8153 0.5473
vn 0.2604 0.5064 0.8220
vn 0.1656 0.9066 0.3882
vn 0.4802 0.3460 0.8060
vn -0.0339 0.9953 0.0902
vn 0.0492 0.9899 0.1328
vn 0.0005 0.8900 0.4559
vn -0.0000 0.9999 0.0129
vn -0.0075 0.6570 0.7538
vn -0.0005 0.9999 0.0114
vn -0.2876 0.2018 0.9362
vn -0.1416 0.8938 0.4256
vn 0.0272 0.9975 0.0648
vn -0.2056 0.8958 0.3940
vn -0.5264 0.1396 0.8387
vn -0.2368 -0.2779 0.9310
vn 0.1119 -0.3753 0.9201
vn 0.0882 -0.3680 0.9256
vn 0.2856 -0.4237 0.8596
vt 0.981549 0.004805
vt 1.000000 0.031725
vt 0.771649 0.000595
vt 0.780671 0.018928
vt 0.788570 0.163536
vt 0.499166 0.000000
vt 0.499893 0.170057
vt 0.499161 0.018577
vt 0.218056 0.019886
vt 0.227482 0.000594
vt 0.000000 0.028261
vt 0.019585 0.004799
vt 0.211352 0.258430
vt 0.008123 0.334380
vt 0.219230 0.409109
vt 0.229790 0.528636
vt 0.497831 0.665658
vt 0.499096 0.412100
vt 0.769477 0.437733
vt 0.971098 0.540708
vt 0.771708 0.835693
vt 0.971575 0.535782
vt 0.967928 0.835986
vt 0.234469 0.722447
vt 0.019661 0.603442
vt 0.008616 0.335015
vt 0.499755 0.822893
vt 0.760378 0.983403
vt 0.959061 0.997278
vt 0.967929 0.835955
vt 0.939053 1.000000
vt 0.750301 0.996158
vt 0.499348 0.996933
vt 0.499385 0.998347
vt 0.500042 0.916834
vt 0.249130 0.996158
vt 0.232813 0.826886
vt 0.239224 0.995205
vt 0.064375 1.000000
vt 0.044245 0.997837
vt 0.019134 0.603793
s 1
usemtl rainbow
f 3/1/1 2/2/2 1/3/3
f 2/2/2 4/4/4 1/3/3
f 5/5/5 4/4/4 2/2/2
f 1/3/3 4/4/4 6/6/6
f 5/5/5 7/7/7 4/4/4
f 4/4/4 8/8/8 6/6/6
f 7/7/7 8/8/8 4/4/4
f 8/8/8 9/9/9 6/6/6
f 8/8/8 7/7/7 9/9/9
f 9/9/9 10/10/10 6/6/6
f 9/9/9 11/11/11 10/10/10
f 11/11/11 12/12/12 10/10/10
f 11/11/11 9/9/9 13/13/13
f 7/7/7 13/13/13 9/9/9
f 14/14/14 11/11/11 13/13/13
f 13/13/13 15/15/15 14/14/14
f 16/16/16 14/14/14 15/15/15
f 17/17/17 16/16/16 15/15/15
f 18/18/18 15/15/15 13/13/13
f 7/7/7 18/18/18 13/13/13
f 19/18/19 17/17/17 15/15/15
f 20/19/20 18/18/18 7/7/7
f 17/17/17 19/18/19 21/19/21
f 22/5/22 20/19/20 7/7/7
f 23/20/23 20/19/20 22/5/22
f 24/2/24 23/20/23 22/5/22
f 25/21/25 17/17/17 21/19/21
f 25/21/25 21/19/21 26/22/26
f 27/23/27 25/21/25 26/22/26
f 30/24/28 29/25/29 28/26/30
f 31/16/31 30/24/28 28/26/30
f 32/27/32 30/24/28 31/16/31
f 33/17/33 32/27/32 31/16/31
f 34/28/34 32/27/32 33/17/33
f 35/21/35 34/28/34 33/17/33
f 36/29/36 34/28/34 35/21/35
f 37/30/37 36/29/36 35/21/35
f 34/28/34 36/29/36 38/31/38
f 39/32/39 34/28/34 38/31/38
f 40/33/40 34/28/34 39/32/39
f 41/34/41 40/33/40 39/32/39
f 34/28/34 40/33/40 42/35/42
f 40/33/40 41/34/41 43/36/43
f 42/35/42 40/33/40 44/37/44
f 45/38/45 40/33/40 43/36/43
f 40/33/40 45/38/45 44/37/44
f 45/38/45 43/36/43 46/39/46
f 47/40/47 45/38/45 46/39/46
f 44/37/44 45/38/45 47/40/47
f 47/40/47 48/41/48 44/37/44
f 49/24/49 44/37/44 48/41/48
f 50/35/50 44/37/44 49/24/49
f 51/27/51 50/35/50 49/24/49
f 52/28/52 50/35/50 51/27/51
