# Blender 4.5.2 LTS
# www.blender.org
mtllib Untitled.mtl
o Icosphere.001
v -0.000000 -0.470984 0.000000
v 0.733014 -0.210633 0.532560
v -0.279981 -0.210633 0.861708
v -0.906054 -0.210631 0.000000
v -0.279981 -0.210633 -0.861708
v 0.733014 -0.210633 -0.532560
v -0.164568 -0.400644 0.506495
v 0.430852 -0.400644 0.313029
v 0.266286 -0.247614 0.819529
v 0.861706 -0.247613 -0.000000
v 0.430852 -0.400644 -0.313029
v -0.532564 -0.400643 0.000000
v -0.697136 -0.247613 0.506497
v -0.164568 -0.400644 -0.506495
v -0.697136 -0.247613 -0.506497
v 0.266286 -0.247614 -0.819529
v 0.963174 -0.001340 0.312738
v 0.963174 -0.001340 -0.312738
v 0.000201 -0.001340 1.012675
v 0.595073 -0.001340 0.819389
v -0.963050 -0.001340 0.313120
v -0.595398 -0.001340 0.819153
v -0.595398 -0.001340 -0.819153
v -0.963050 -0.001340 -0.313120
v 0.595073 -0.001340 -0.819389
v 0.000201 -0.001340 -1.012675
v 0.000000 -0.464940 0.000000
v 0.723607 -0.207930 0.525725
v -0.276388 -0.207930 0.850649
v -0.894426 -0.207928 0.000000
v -0.276388 -0.207930 -0.850649
v 0.723607 -0.207930 -0.525725
v -0.162456 -0.395503 0.499995
v 0.425323 -0.395503 0.309011
v 0.262869 -0.244436 0.809012
v 0.850648 -0.244435 0.000000
v 0.425323 -0.395503 -0.309011
v -0.525730 -0.395502 0.000000
v -0.688189 -0.244436 0.499997
v -0.162456 -0.395503 -0.499995
v -0.688189 -0.244436 -0.499997
v 0.262869 -0.244436 -0.809012
v 0.951058 0.000000 0.309013
v 0.951058 0.000000 -0.309013
v 0.000000 0.000000 1.000000
v 0.587786 0.000000 0.809017
v -0.951058 0.000000 0.309013
v -0.587786 0.000000 0.809017
v -0.587786 0.000000 -0.809017
v -0.951058 0.000000 -0.309013
v 0.587786 0.000000 -0.809017
v 0.000000 0.000000 -1.000000
vn -0.0000 -1.0000 -0.0000
vn 0.2234 -0.9611 0.1623
vn -0.0853 -0.9611 0.2627
vn 0.5507 -0.7325 0.4001
vn 0.6008 -0.7994 -0.0000
vn -0.2762 -0.9611 -0.0000
vn -0.0853 -0.9611 -0.2627
vn 0.2234 -0.9611 -0.1623
vn 0.8580 -0.4408 0.2637
vn -0.2104 -0.7325 0.6474
vn 0.1857 -0.7994 0.5714
vn 0.0143 -0.4408 0.8975
vn -0.6807 -0.7325 -0.0000
vn -0.4861 -0.7994 0.3532
vn -0.8491 -0.4408 0.2909
vn -0.2104 -0.7325 -0.6474
vn -0.4861 -0.7994 -0.3532
vn -0.5391 -0.4408 -0.7177
vn 0.5507 -0.7325 -0.4001
vn 0.1857 -0.7994 -0.5714
vn 0.5159 -0.4408 -0.7345
vn 0.5159 -0.4408 0.7345
vn -0.5391 -0.4408 0.7177
vn -0.8491 -0.4408 -0.2909
vn 0.0143 -0.4408 -0.8975
vn 0.8580 -0.4408 -0.2637
vn -0.0000 1.0000 -0.0000
vn 0.0853 0.9611 -0.2627
vn -0.2234 0.9611 -0.1623
vn -0.5509 0.7323 -0.4003
vn -0.6012 0.7991 -0.0000
vn 0.2762 0.9611 -0.0000
vn 0.0853 0.9611 0.2627
vn -0.2234 0.9611 0.1623
vn -0.8586 0.4394 -0.2640
vn 0.2104 0.7323 -0.6476
vn -0.0142 0.4394 -0.8982
vn -0.1858 0.7991 -0.5717
vn 0.6810 0.7323 -0.0000
vn 0.8498 0.4394 -0.2911
vn 0.4864 0.7991 -0.3534
vn 0.2104 0.7323 0.6476
vn 0.5395 0.4394 0.7183
vn 0.4864 0.7991 0.3534
vn -0.5509 0.7323 0.4003
vn -0.5164 0.4394 0.7350
vn -0.1858 0.7991 0.5717
vn -0.5164 0.4394 -0.7350
vn 0.5395 0.4394 -0.7183
vn 0.8498 0.4394 0.2911
vn -0.0142 0.4394 0.8982
vn -0.8586 0.4394 0.2640
vn 0.1001 0.9945 -0.0323
vn 0.0616 0.9945 -0.0852
vn 0.0622 0.9945 -0.0848
vn 0.0999 0.9945 -0.0329
vn 0.0003 0.9945 -0.1052
vn -0.0620 0.9945 -0.0849
vn -0.0615 0.9945 -0.0853
vn -0.0004 0.9945 -0.1052
vn -0.0999 0.9945 -0.0327
vn -0.0999 0.9945 0.0327
vn -0.1002 0.9945 0.0321
vn -0.1002 0.9945 -0.0321
vn -0.0620 0.9945 0.0849
vn 0.0003 0.9945 0.1052
vn -0.0004 0.9945 0.1052
vn -0.0615 0.9945 0.0853
vn 0.0616 0.9945 0.0852
vn 0.1001 0.9945 0.0323
vn 0.0999 0.9945 0.0329
vn 0.0622 0.9945 0.0848
vt 0.584159 0.420430
vt 0.637596 0.381607
vt 0.563749 0.357612
vt 0.722366 0.320605
vt 0.739961 0.420430
vt 0.518108 0.420430
vt 0.563749 0.483247
vt 0.637596 0.459253
vt 0.938415 0.305327
vt 0.532487 0.258907
vt 0.632864 0.273023
vt 0.584159 0.047944
vt 0.415132 0.420430
vt 0.459578 0.329329
vt 0.229903 0.305327
vt 0.532487 0.581952
vt 0.459578 0.511530
vt 0.365217 0.721777
vt 0.722366 0.520254
vt 0.632864 0.567836
vt 0.803101 0.721777
vt 0.803101 0.119082
vt 0.365217 0.119082
vt 0.229903 0.535533
vt 0.584159 0.792916
vt 0.938415 0.535533
s 1
usemtl Material.001
f 1/1/1 8/2/2 7/3/3
f 2/4/4 8/2/2 10/5/5
f 1/1/1 7/3/3 12/6/6
f 1/1/1 12/6/6 14/7/7
f 1/1/1 14/7/7 11/8/8
f 2/4/4 10/5/5 17/9/9
f 3/10/10 9/11/11 19/12/12
f 4/13/13 13/14/14 21/15/15
f 5/16/16 15/17/17 23/18/18
f 6/19/19 16/20/20 25/21/21
f 2/4/4 17/9/9 20/22/22
f 3/10/10 19/12/12 22/23/23
f 4/13/13 21/15/15 24/24/24
f 5/16/16 23/18/18 26/25/25
f 6/19/19 25/21/21 18/26/26
f 25/21/21 16/20/20 26/25/25
f 16/20/20 5/16/16 26/25/25
f 23/18/18 15/17/17 24/24/24
f 15/17/17 4/13/13 24/24/24
f 21/15/15 13/14/14 22/23/23
f 13/14/14 3/10/10 22/23/23
f 19/12/12 9/11/11 20/22/22
f 9/11/11 2/4/4 20/22/22
f 17/9/9 10/5/5 18/26/26
f 10/5/5 6/19/19 18/26/26
f 11/8/8 16/20/20 6/19/19
f 11/8/8 14/7/7 16/20/20
f 14/7/7 5/16/16 16/20/20
f 14/7/7 15/17/17 5/16/16
f 14/7/7 12/6/6 15/17/17
f 12/6/6 4/13/13 15/17/17
f 12/6/6 13/14/14 4/13/13
f 12/6/6 7/3/3 13/14/14
f 7/3/3 3/10/10 13/14/14
f 10/5/5 11/8/8 6/19/19
f 10/5/5 8/2/2 11/8/8
f 8/2/2 1/1/1 11/8/8
f 7/3/3 9/11/11 3/10/10
f 7/3/3 8/2/2 9/11/11
f 8/2/2 2/4/4 9/11/11
f 27/1/27 33/3/28 34/2/29
f 28/4/30 36/5/31 34/2/29
f 27/1/27 38/6/32 33/3/28
f 27/1/27 40/7/33 38/6/32
f 27/1/27 37/8/34 40/7/33
f 28/4/30 43/9/35 36/5/31
f 29/10/36 45/12/37 35/11/38
f 30/13/39 47/15/40 39/14/41
f 31/16/42 49/18/43 41/17/44
f 32/19/45 51/21/46 42/20/47
f 28/4/30 46/22/48 43/9/35
f 29/10/36 48/23/49 45/12/37
f 30/13/39 50/24/50 47/15/40
f 31/16/42 52/25/51 49/18/43
f 32/19/45 44/26/52 51/21/46
f 51/21/46 52/25/51 42/20/47
f 42/20/47 52/25/51 31/16/42
f 49/18/43 50/24/50 41/17/44
f 41/17/44 50/24/50 30/13/39
f 47/15/40 48/23/49 39/14/41
f 39/14/41 48/23/49 29/10/36
f 45/12/37 46/22/48 35/11/38
f 35/11/38 46/22/48 28/4/30
f 43/9/35 44/26/52 36/5/31
f 36/5/31 44/26/52 32/19/45
f 37/8/34 32/19/45 42/20/47
f 37/8/34 42/20/47 40/7/33
f 40/7/33 42/20/47 31/16/42
f 40/7/33 31/16/42 41/17/44
f 40/7/33 41/17/44 38/6/32
f 38/6/32 41/17/44 30/13/39
f 38/6/32 30/13/39 39/14/41
f 38/6/32 39/14/41 33/3/28
f 33/3/28 39/14/41 29/10/36
f 36/5/31 32/19/45 37/8/34
f 36/5/31 37/8/34 34/2/29
f 34/2/29 37/8/34 27/1/27
f 33/3/28 29/10/36 35/11/38
f 33/3/28 35/11/38 34/2/29
f 34/2/29 35/11/38 28/4/30
f 18/26/53 25/21/54 51/21/55 44/26/56
f 26/25/57 23/18/58 49/18/59 52/25/60
f 24/24/61 21/15/62 47/15/63 50/24/64
f 22/23/65 19/12/66 45/12/67 48/23/68
f 20/22/69 17/9/70 43/9/71 46/22/72
f 25/21/54 26/25/57 52/25/60 51/21/55
f 23/18/58 24/24/61 50/24/64 49/18/59
f 21/15/62 22/23/65 48/23/68 47/15/63
f 19/12/66 20/22/69 46/22/72 45/12/67
f 17/9/70 18/26/53 44/26/56 43/9/71
