# Blender 4.5.2 LTS
# www.blender.org
mtllib verts1.mtl
o Icosphere.001
v 0.000000 -0.464940 0.000000
v 0.723607 -0.207930 0.525725
v -0.276388 -0.207930 0.850649
v -0.894426 -0.207928 0.000000
v -0.276388 -0.207930 -0.850649
v 0.723607 -0.207930 -0.525725
v -0.162456 -0.395503 0.499995
v 0.425323 -0.395503 0.309011
v 0.262869 -0.244436 0.809012
v 0.850648 -0.244435 0.000000
v 0.425323 -0.395503 -0.309011
v -0.525730 -0.395502 0.000000
v -0.688189 -0.244436 0.499997
v -0.162456 -0.395503 -0.499995
v -0.688189 -0.244436 -0.499997
v 0.262869 -0.244436 -0.809012
v 0.951058 0.000000 0.309013
v 0.951058 -0.000000 -0.309013
v 0.000000 0.000000 1.000000
v 0.587786 0.000000 0.809017
v -0.951058 0.000000 0.309013
v -0.587786 0.000000 0.809017
v -0.587786 -0.000000 -0.809017
v -0.951058 -0.000000 -0.309013
v 0.587786 -0.000000 -0.809017
v 0.000000 -0.000000 -1.000000
vn -0.0000 1.0000 -0.0000
vn 0.0853 0.9611 -0.2627
vn -0.2234 0.9611 -0.1623
vn -0.5509 0.7323 -0.4003
vn -0.6012 0.7991 -0.0000
vn 0.2762 0.9611 -0.0000
vn 0.0853 0.9611 0.2627
vn -0.2234 0.9611 0.1623
vn -0.8586 0.4394 -0.2640
vn 0.2104 0.7323 -0.6477
vn -0.0142 0.4394 -0.8982
vn -0.1858 0.7991 -0.5717
vn 0.6810 0.7323 -0.0000
vn 0.8498 0.4394 -0.2911
vn 0.4864 0.7991 -0.3534
vn 0.2104 0.7323 0.6477
vn 0.5395 0.4394 0.7183
vn 0.4864 0.7991 0.3534
vn -0.5509 0.7323 0.4003
vn -0.5164 0.4394 0.7350
vn -0.1858 0.7991 0.5717
vn -0.5164 0.4394 -0.7350
vn 0.5395 0.4394 -0.7183
vn 0.8498 0.4394 0.2911
vn -0.0142 0.4394 0.8982
vn -0.8586 0.4394 0.2640
vt 0.316022 0.310235
vt 0.369371 0.141449
vt 0.498413 0.302704
vt 0.671410 0.621023
vt 0.622628 0.790698
vt 0.546636 0.624571
vt 0.160574 0.213700
vt 0.160577 0.419609
vt 0.369372 0.474615
vt 0.745586 0.722922
vt 0.622927 0.288511
vt 0.546636 0.184371
vt 0.673101 0.126872
vt 0.825023 0.297255
vt 0.751259 0.192667
vt 0.873535 0.128027
vt 0.949826 0.189047
vt 0.873536 0.090936
vt 1.000000 0.023438
vt 0.124774 0.759932
vt 0.198950 0.866052
vt 0.075992 0.926834
vt 0.745586 0.514903
vt 0.546636 0.386622
vt 0.751259 0.401842
vt 0.873535 0.293187
vt 0.198950 0.658033
vt 0.941601 0.454120
vt 1.000000 0.350686
vt 0.817071 0.571072
vt 0.873535 0.466482
vt 0.817071 0.023438
vt 0.673100 0.454120
vt 0.614702 0.023437
vt 0.622628 0.454121
vt 0.679408 0.893092
vt 0.075992 0.590257
vt 0.398064 0.590257
vt 0.208799 0.584203
vt 0.042838 0.496675
vt -0.000000 0.323285
vt 0.042835 0.146359
vt 0.208795 0.045124
vt 0.398062 0.023438
vt -0.000000 0.756384
vt 0.546636 0.467296
vt 0.751259 0.293586
vt 0.546636 0.134129
s 1
usemtl black
f 1/1/1 7/2/2 8/3/3
f 2/4/4 10/5/5 8/6/3
f 1/1/1 12/7/6 7/2/2
f 1/1/1 14/8/7 12/7/6
f 1/1/1 11/9/8 14/8/7
f 2/4/4 17/10/9 10/5/5
f 3/11/10 19/12/11 9/13/12
f 4/14/13 21/15/14 13/16/15
f 5/17/16 23/18/17 15/19/18
f 6/20/19 25/21/20 16/22/21
f 2/4/4 20/23/22 17/10/9
f 3/11/10 22/24/23 19/12/11
f 4/14/13 24/25/24 21/15/14
f 5/17/16 26/26/25 23/18/17
f 6/20/19 18/27/26 25/21/20
f 25/28/20 26/26/25 16/29/21
f 16/29/21 26/26/25 5/17/16
f 23/30/17 24/25/24 15/31/18
f 15/31/18 24/25/24 4/14/13
f 21/15/14 22/32/23 13/16/15
f 13/33/15 22/24/23 3/11/10
f 19/12/11 20/34/22 9/13/12
f 9/35/12 20/23/22 2/4/4
f 17/10/9 18/36/26 10/5/5
f 10/37/5 18/27/26 6/20/19
f 11/9/8 6/38/19 16/39/21
f 11/9/8 16/39/21 14/8/7
f 14/8/7 16/39/21 5/40/16
f 14/8/7 5/40/16 15/41/18
f 14/8/7 15/41/18 12/7/6
f 12/7/6 15/41/18 4/42/13
f 12/7/6 4/42/13 13/43/15
f 12/7/6 13/43/15 7/2/2
f 7/2/2 13/43/15 3/44/10
f 10/37/5 6/20/19 11/45/8
f 10/46/5 11/9/8 8/3/3
f 8/3/3 11/9/8 1/1/1
f 7/47/2 3/11/10 9/13/12
f 7/2/2 9/48/12 8/3/3
f 8/6/3 9/35/12 2/4/4
